<?xml version="1.0" encoding="utf-8"?>
<!-- Generator: Adobe Illustrator 25.2.1, SVG Export Plug-In . SVG Version: 6.00 Build 0)  -->
<svg version="1.1" id="Layer_1" xmlns="http://www.w3.org/2000/svg" xmlns:xlink="http://www.w3.org/1999/xlink" x="0px" y="0px"
	 viewBox="0 0 612 792" style="enable-background:new 0 0 612 792;" xml:space="preserve">
<style type="text/css">
	.st0{fill:#E66DAA;}
	.st1{fill:#EB81B4;}
	.st2{fill:#E87EB2;}
	.st3{fill:#EE81B4;}
	.st4{fill:#EC83B5;}
	.st5{fill:#E97FB3;}
	.st6{fill:#E97EB2;}
	.st7{fill:#EC80B3;}
	.st8{fill:#EA82B4;}
</style>
<g>
	<path class="st0" d="M199.93,530.71c-5.01,0.6-9.74-0.66-14.23-2.59c-4.53-1.95-8.19-5.2-11.46-8.88c-3.21-3.6-5.03-7.91-6.7-12.34
		c-1.81-4.8-3.07-9.75-3.99-14.78c-0.41-2.27-0.52-4.6-0.7-6.9c-0.58-7.34,0.05-14.68,0.11-22.02c0.01-1.66,0.28-3.34,0.59-4.98
		c0.2-1.05,0.11-1.84-0.74-2.56c-4.06-3.44-6.06-8.08-7.81-12.95c-2.3-6.4-3.38-12.95-3.27-19.73c0.02-1.12,0.03-2.24,0-3.36
		c-0.15-4.97,0.26-9.89,1.13-14.78c0.79-4.47,1.09-9.03,2.27-13.44c0.8-2.99,1.63-5.97,2.48-8.95c2.09-7.29,4.04-14.63,7.02-21.63
		c3.82-8.95,7.41-18.01,11.92-26.66c2.24-4.31,4.31-8.72,6.7-12.95c3.85-6.81,7.95-13.48,12.16-20.07
		c5.55-8.69,11.58-17.03,18.14-24.96c7.44-8.99,15.37-17.53,24.1-25.33c4.83-4.32,9.7-8.56,14.93-12.37
		c3.81-2.77,7.88-5.17,12.1-7.29c3.64-1.83,7.23-3.77,10.97-5.37c2.85-1.21,5.86-2.15,8.88-2.86c2.94-0.69,5.89-1.45,8.91-1.8
		c4.53-0.52,9.03-0.83,13.55,0.08c1.33,0.27,2.69,0.34,4.03,0.58c9.54,1.71,17.52,6.17,23.85,13.57c4.65,5.43,7.82,11.64,9.84,18.45
		c0.95,3.21,1.97,6.43,2.48,9.73c0.61,3.93,1.48,7.84,1.59,11.84c0.12,4.47,0.57,8.95,0.39,13.4c-0.26,6.53-0.5,13.07-1.16,19.59
		c-0.64,6.36-2.03,12.58-2.89,18.89c-0.63,4.6-1.4,9.18-2.69,13.61c-1.61,5.52-2.73,11.14-4.31,16.66
		c-1.45,5.07-3.25,10.02-4.74,15.07c-1.04,3.52-2.39,6.95-3.71,10.38c-1.92,5-3.4,10.16-5.48,15.1
		c-4.25,10.1-8.84,20.03-13.87,29.76c-3.3,6.38-6.92,12.59-10.39,18.87c-3.91,7.08-8.52,13.7-12.97,20.42
		c-3.04,4.59-6.59,8.83-9.9,13.23c-4.91,6.54-10.64,12.31-16.23,18.24c-4.34,4.6-9.25,8.55-14.05,12.64
		c-4.09,3.49-8.48,6.54-13.12,9.22c-5.83,3.36-11.9,6.31-18.39,8.06C210.29,529.92,205.21,531.22,199.93,530.71z M339.04,292.12
		c0.02-6.21,0.04-11.49-0.57-16.74c-0.45-3.88-0.92-7.76-1.72-11.58c-1.34-6.41-3.97-12.29-7.47-17.79
		c-3.48-5.48-7.79-10.08-13.7-13.03c-3.45-1.73-7.04-3.17-10.76-3.93c-3.8-0.78-7.73-0.72-11.68-0.34
		c-7.41,0.71-14.35,2.88-21.04,5.94c-3.26,1.49-6.31,3.4-9.38,5.28c-7.76,4.74-14.58,10.62-21.11,16.87
		c-2.94,2.82-5.62,5.92-8.53,8.76c-6.97,6.78-12.77,14.5-18.63,22.19c-4.7,6.17-8.5,12.95-12.89,19.31
		c-5.06,7.34-8.75,15.42-13.33,23c-3.14,5.2-5.33,10.89-7.93,16.37c-2.96,6.25-5.93,12.54-8.08,19.16
		c-2.09,6.46-4.59,12.79-6.23,19.38c-2.13,8.6-4.1,17.24-5.16,26.05c-0.52,4.33-0.85,8.72-0.3,13.11c0.29,2.29,0.4,4.61,0.64,6.91
		c0.36,3.43,0.99,6.79,2.39,9.97c0.23,0.53,0.45,1.08,1.14,1.04c0.7-0.04,0.87-0.61,0.96-1.18c0.4-2.69,1.31-5.28,1.81-7.93
		c1.17-6.22,3.35-12.15,4.98-18.24c2.48-9.27,6.48-18.02,9.71-27.03c2.02-5.63,4.77-10.97,7.27-16.39
		c4.66-10.1,10.44-19.58,16.54-28.87c5.29-8.06,11.74-15.16,18.72-21.76c2.96-2.8,6.29-5.17,9.72-7.36
		c4.81-3.07,9.98-5.35,15.52-6.82c1.66-0.44,3.29-0.64,4.97-0.54c2.22,0.13,3.58,2.03,3.06,4.18c-0.85,3.49-4.93,6.23-8.45,5.45
		c-5.32-1.17-9.94,0.53-14.29,3.29c-2.78,1.77-4.89,4.33-7.25,6.59c-5.4,5.18-9.84,11.13-13.84,17.41
		c-3.77,5.93-7.24,12.04-10.28,18.4c-1.79,3.74-3.77,7.41-5.54,11.16c-2.68,5.7-4.95,11.6-7.34,17.43
		c-2.18,5.32-4.16,10.72-5.98,16.17c-1.27,3.78-2.58,7.56-3.66,11.39c-1.43,5.07-3,10.09-4.25,15.22
		c-0.83,3.41-1.62,6.83-2.32,10.26c-0.41,2.01-1.03,4.02-1.09,6.12c-0.09,3.16,0.61,4.1,3.68,4.71c0.16,0.03,0.32,0.04,0.48,0.05
		c2.76,0.28,5.46,1,8.3,0.55c1.45-0.23,2.9,0.22,3.74,1.63c0.93,1.58,0.52,3.15-0.39,4.53c-0.93,1.41-2.23,2.51-3.9,3.06
		c-2.11,0.69-4.23,0.64-6.38,0.16c-1.71-0.39-3.42-0.83-5.15-1.06c-1.48-0.2-1.84,0.09-1.87,1.45c-0.03,1.53-0.36,3.01-0.44,4.52
		c-0.35,6.96-0.04,13.91,0.53,20.84c0.24,2.92,0.76,5.84,1.48,8.72c1.12,4.46,2.92,8.61,5.3,12.52c3.96,6.49,9.26,11.21,17.01,12.44
		c2.65,0.42,5.37,0.44,8.09,0.39c7.61-0.15,14.64-2.41,21.34-5.69c5.15-2.52,9.98-5.64,14.72-8.92
		c8.36-5.79,15.45-12.94,22.16-20.44c6.86-7.67,13.05-15.9,18.85-24.46c4.84-7.15,9.2-14.58,13.5-22.02
		c4.79-8.29,8.97-16.92,12.92-25.64c2.67-5.88,5.42-11.75,7.73-17.77c3.39-8.86,6.77-17.73,9.48-26.85
		c3.02-10.17,6.29-20.27,8.31-30.71c1.68-8.69,3.77-17.29,4.46-26.16C338.28,306.95,339.37,299.11,339.04,292.12z"/>
	<path class="st0" d="M346.73,470.69c-0.29-3.53,0.54-7.36,1.06-11.24c0.67-5.06,1.52-10.09,2.33-15.12
		c0.43-2.67,1.17-5.29,1.81-7.93c1.35-5.58,2.62-11.19,4.3-16.68c2.48-8.09,4.92-16.19,7.74-24.18c0.64-1.81,1.12-3.67,1.83-5.45
		c3.77-9.4,6.88-19.07,11.23-28.24c2.12-4.47,4.35-8.89,6.46-13.37c2.61-5.54,5.61-10.9,8.52-16.3c3.2-5.93,7.31-11.23,11.04-16.81
		c4.75-7.12,11.1-12.54,18.06-17.27c4.22-2.87,9.08-3.85,14.19-3.28c3.65,0.4,7.17,4.41,7.53,8.55c0.25,2.89,0.08,5.77-0.56,8.58
		c-1.73,7.65-4.04,15.11-7.42,22.21c-3.78,7.94-7.92,15.69-12.72,23.06c-3.4,5.22-6.87,10.41-10.62,15.38
		c-5.34,7.07-10.84,14.03-16.52,20.83c-3.63,4.35-7.51,8.49-11.35,12.66c-4.06,4.4-8.45,8.49-12.37,13.03
		c-1.45,1.68-3.22,3.09-4.77,4.69c-0.98,1.02-2.03,1.99-2.37,3.5c-1.41,6.23-3.11,12.4-4.23,18.68c-0.93,5.25-1.84,10.52-2.53,15.82
		c-0.44,3.41-0.83,6.79-0.81,10.23c0.01,1.21,0.27,2.38,0.37,3.57c0.04,0.39,0.04,0.83,0.52,0.97c0.57,0.17,0.94-0.22,1.18-0.61
		c1.25-2.04,2.57-4.05,3.66-6.18c2.43-4.77,5.1-9.39,7.89-13.95c1.42-2.31,2.71-4.7,3.88-7.16c0.44-0.94,0.59-1.81,0.29-2.77
		c-1.44-4.61-0.25-9.04,1.14-13.37c1.25-3.91,4.28-5.84,8.46-5.61c2.38,0.13,3.79-0.66,4.97-2.78c3.55-6.35,7.9-12.18,12.02-18.17
		c1.76-2.56,3.5-5.14,5.41-7.61c2.41-3.11,5.08-5.91,8.07-8.49c2.48-2.13,4.79-4.45,7.52-6.29c3.02-2.03,6.22-3.53,9.88-4.04
		c1.66-0.23,3.2-0.03,4.7,0.46c2.69,0.88,3.8,3.05,4.01,5.69c0.35,4.48-1.21,8.47-3.36,12.28c-2.13,3.78-4.91,7.06-7.75,10.32
		c-1.84,2.11-3.73,4.16-5.75,6.09c-6.36,6.09-13.23,11.53-20.92,15.87c-3.7,2.09-7.69,3.53-11.68,4.92
		c-1.46,0.51-2.56,1.24-3.21,2.64c-0.13,0.29-0.31,0.56-0.45,0.85c-1.95,4.02-2.6,3.39,0.31,8.06c2.78,4.46,6.51,8,11.45,10.17
		c2.78,1.22,5.47,2.59,8.48,3.21c7.41,1.52,14.55,0.63,21.58-2.07c5.48-2.1,10.68-4.75,15.59-7.88c4.24-2.69,8.14-5.91,12.26-8.78
		c5.45-3.8,10.34-8.28,15.4-12.55c2.62-2.21,5.1-4.61,7.6-6.96c0.82-0.77,1.68-1.48,2.62-2.08c0.92-0.59,1.88-0.97,2.83-0.05
		c0.81,0.78,0.81,1.72-0.2,3c-0.99,1.25-2.04,2.47-3.18,3.58c-5.58,5.38-11.26,10.66-16.81,16.08c-6.54,6.4-13.82,11.85-21.44,16.86
		c-4.6,3.02-9.34,5.93-14.6,7.65c-6.75,2.21-13.55,4.34-20.83,3.83c-3.61-0.25-7.06-1.11-10.43-2.41c-2.53-0.98-5.12-1.79-7.43-3.27
		c-2.15-1.37-4.41-2.58-6.45-4.1c-1.18-0.88-2-2.24-2.98-3.4c-2.67-3.17-2.8-3.12-4.75,0.43c-3.2,5.81-5.88,11.89-9.33,17.57
		c-1.45,2.38-2.37,5.04-3.73,7.49c-1.24,2.23-2.9,4.07-4.92,5.48c-2.98,2.07-5.99,1.54-8.64-1.56c-0.87-1.02-1.43-2.27-1.85-3.6
		C346.69,479.39,346.48,475.27,346.73,470.69z M369.02,410.4c0.99-0.29,1.7-1.03,2.47-1.69c2.68-2.3,4.71-5.21,7.27-7.62
		c7.76-7.31,14.27-15.73,21.19-23.78c4.94-5.75,9.36-11.93,13.6-18.23c3.87-5.77,7.68-11.59,10.95-17.72
		c3.42-6.41,6.27-13.08,8.63-19.97c1.61-4.7,2.13-9.48,1.82-14.39c-0.05-0.78-0.29-1.58-0.58-2.31c-0.78-1.97-2.13-2.78-4.28-2.77
		c-2.53,0.01-4.63,1.13-6.63,2.49c-5.14,3.5-9.15,8.19-13.15,12.87c-3.44,4.02-6.31,8.44-8.87,13.06
		c-2.32,4.19-4.68,8.37-6.79,12.67c-2.39,4.87-4.37,9.94-6.82,14.78c-2.85,5.64-4.89,11.61-7.3,17.43
		c-4.42,10.7-7.25,21.96-11.38,32.77C368.91,408.65,368.41,409.41,369.02,410.4z M397.48,422.56c0.75,0.24,1.16-0.04,1.57-0.23
		c3.4-1.6,6.66-3.46,9.66-5.72c5.3-4,10.18-8.48,14.74-13.29c2.7-2.85,4.89-6.11,6.37-9.77c0.49-1.22,1.46-2.66,0.3-3.79
		c-1.31-1.27-2.83-0.34-4.19,0.34c-0.29,0.14-0.58,0.28-0.84,0.46c-2.16,1.5-4.34,2.96-6.24,4.82c-3.48,3.41-6.59,7.15-9.79,10.81
		c-3.36,3.85-6.52,7.85-9.25,12.18C398.99,419.69,398.3,421.09,397.48,422.56z"/>
	<path class="st1" d="M398.65,511.51c-1.5,0.74-1.59,1.8-2.11,2.54c-0.78,1.12-0.76,3.14-2.52,3.13c-1.6-0.01-1.68-1.9-2.42-2.97
		c-0.41-0.59-0.7-1.27-1.18-1.78c-0.51-0.54-1.1-0.39-1.16,0.39c-0.11,1.43-0.11,2.87-0.09,4.3c0.01,1.09-0.45,1.64-1.56,1.62
		c-0.83-0.01-1.39-0.32-1.43-1.23c-0.02-0.4-0.03-0.8-0.02-1.2c0.1-3.11,0.22-6.21,0.32-9.32c0.03-0.84,0.11-1.64,1.1-1.88
		c0.95-0.22,1.49,0.38,1.92,1.1c1.07,1.77,2.1,3.57,3.19,5.34c1.04,1.7,1.55,1.69,2.6-0.09c0.73-1.23,1.39-2.51,2.08-3.77
		c0.38-0.7,0.73-1.42,1.16-2.09c0.41-0.65,1.05-1.04,1.82-0.82c0.72,0.21,0.84,0.89,0.88,1.55c0.01,0.16,0.02,0.32,0.01,0.48
		c-0.09,2.63-0.11,5.26,0.26,7.88c0.1,0.7,0.03,1.43,0.01,2.15c-0.03,0.99-0.39,1.77-1.52,1.72c-0.98-0.05-1.32-0.79-1.33-1.67
		C398.64,515.24,398.65,513.58,398.65,511.51z"/>
	<path class="st2" d="M286.32,511.85c0-1.75-0.07-3.51,0.02-5.26c0.08-1.54,1.21-2.05,2.46-1.17c0.45,0.32,0.9,0.71,1.18,1.18
		c1.17,1.94,3.18,3.14,4.34,5.08c0.18,0.3,0.48,0.47,0.8,0.4c0.32-0.08,0.51-0.39,0.52-0.73c0.06-1.27,0.1-2.55,0.14-3.82
		c0.06-1.95,0.36-2.46,1.47-2.47c1.05-0.01,1.47,0.58,1.51,2.5c0.06,3.03,0.04,6.06,0.01,9.09c-0.01,0.86,0.05,1.86-1.14,2.07
		c-1,0.17-1.83-0.03-2.42-1.05c-1.27-2.21-3.32-3.86-4.55-6.12c-0.21-0.39-0.6-0.85-1.15-0.58c-0.4,0.2-0.31,0.68-0.32,1.07
		c-0.01,1.67-0.04,3.35,0.01,5.02c0.03,1.12-0.54,1.63-1.57,1.65c-1.03,0.02-1.33-0.66-1.31-1.59
		C286.34,515.35,286.32,513.6,286.32,511.85z"/>
	<path class="st3" d="M366.48,511.96c0-1.83-0.01-3.67,0-5.5c0.01-0.97,0.52-1.46,1.51-1.43c0.98,0.02,1.47,0.52,1.46,1.49
		c-0.01,0.8-0.05,1.59-0.08,2.39c-0.04,0.99,0.44,1.48,1.43,1.45c0.32-0.01,0.64,0.03,0.96,0c1.26-0.09,2.72,0.47,3.73-0.3
		c1.02-0.78,0.36-2.24,0.46-3.4c0.08-0.93,0.4-1.5,1.41-1.55c1.18-0.07,1.58,0.67,1.61,1.63c0.05,1.91-0.01,3.83-0.02,5.74
		c-0.01,1.52,0,3.03-0.02,4.55c-0.01,0.79-0.33,1.39-1.14,1.63c-0.95,0.28-1.74-0.21-1.83-1.26c-0.08-0.95-0.03-1.91-0.04-2.87
		c-0.02-0.96-0.51-1.47-1.48-1.49c-1.2-0.02-2.39,0-3.59-0.03c-1-0.02-1.47,0.48-1.47,1.45c-0.01,0.88-0.04,1.76,0.03,2.63
		c0.09,1.15-0.51,1.61-1.54,1.65c-1.03,0.04-1.4-0.57-1.39-1.52C366.49,515.47,366.48,513.72,366.48,511.96
		C366.48,511.96,366.48,511.96,366.48,511.96z"/>
	<path class="st4" d="M408.63,511.85c0-1.6-0.02-3.19,0.01-4.79c0.02-1.61,0.34-2,1.96-2.04c2.23-0.05,4.47,0.02,6.7,0.04
		c0.78,0.01,1.54,0.22,1.51,1.13c-0.02,0.9-0.79,1.09-1.57,1.1c-1.51,0.02-3.02,0-4.51,0.38c-0.92,0.23-1.13,0.74-1.08,1.55
		c0.05,0.78,0.49,1.13,1.25,1.14c0.88,0.01,1.76,0.01,2.63,0.03c0.56,0.01,1.13-0.01,1.66,0.11c0.67,0.15,1.15,0.63,1.13,1.36
		c-0.02,0.77-0.56,1.1-1.29,1.11c-1.2,0.02-2.4-0.02-3.59,0.02c-1.52,0.05-1.75,0.28-1.72,1.61c0.02,1.29,0.22,1.48,1.81,1.54
		c1.2,0.05,2.4,0.01,3.59,0.07c0.55,0.03,1.11,0.14,1.63,0.33c0.62,0.23,0.71,0.8,0.63,1.4c-0.07,0.57-0.45,0.86-0.97,0.86
		c-2.79,0.01-5.59,0.01-8.38-0.04c-1.01-0.02-1.31-0.72-1.31-1.64c0.02-1.76,0.01-3.51,0.01-5.27
		C408.69,511.85,408.66,511.85,408.63,511.85z"/>
	<path class="st5" d="M425.41,512.02c0-1.59-0.02-3.19,0.01-4.78c0.03-1.83,0.29-2.12,2.03-2.17c1.59-0.05,3.19-0.11,4.78,0
		c1.9,0.12,3.72,0.75,4.53,2.59c0.79,1.8,0.75,3.68-0.53,5.42c-1.34,1.83-1.29,1.87,0.22,3.89c0.32,0.43,0.93,0.89,0.51,1.43
		c-0.51,0.66-1.33,0.46-1.97,0.13c-0.88-0.46-1.28-1.38-1.77-2.2c-0.81-1.33-2.42-1.93-3.86-1.46c-1.07,0.35-0.75,1.26-0.83,2
		c-0.18,1.62-0.49,1.95-1.79,1.93c-0.88-0.01-1.32-0.37-1.31-1.28C425.43,515.68,425.41,513.85,425.41,512.02
		C425.41,512.02,425.41,512.02,425.41,512.02z M428.1,509.81c0,2.75,0.07,2.83,2.79,2.81c0.63-0.01,1.29,0.01,1.89-0.15
		c1.39-0.37,2.3-1.83,2.03-3.1c-0.32-1.51-2.18-2.51-4.22-2.28C428.1,507.37,428.1,507.37,428.1,509.81z"/>
	<path class="st6" d="M265.56,511.74c0.02-3.88,3.3-6.96,7.6-6.92c4.55,0.04,6.86,3.6,6.93,7.07c0.08,3.59-3.61,7.32-7.01,7.19
		C268.44,518.91,265.2,515.37,265.56,511.74z M277.53,511.7c-0.02-2.58-1.95-4.42-4.57-4.37c-2.65,0.05-4.65,1.93-4.66,4.4
		c-0.01,2.92,1.88,4.82,4.74,4.75C275.7,516.43,277.56,514.45,277.53,511.7z"/>
	<path class="st7" d="M361.34,518.51c-1.18,0.47-1.98,0.3-2.77,0.29c-0.71,0-1.1-0.33-1.47-0.97c-0.63-1.1-1.43-2.11-2.22-3.11
		c-0.45-0.58-1.03-1.05-1.85-0.81c-0.86,0.25-1.31,0.87-1.38,1.76c-0.04,0.56-0.02,1.12-0.09,1.67c-0.12,0.96-0.72,1.38-1.66,1.32
		c-0.88-0.05-1.27-0.56-1.28-1.41c-0.02-3.6-0.04-7.2-0.04-10.79c0-1.01,0.62-1.39,1.56-1.4c1.07-0.02,1.47,0.66,1.36,1.54
		c-0.13,1.04-0.15,2.07-0.14,3.1c0,0.4,0.02,0.86,0.5,0.96c0.42,0.09,0.74-0.21,1.02-0.5c1.28-1.32,2.57-2.63,3.85-3.95
		c0.5-0.52,1-1.07,1.79-1.11c0.46-0.02,1.01-0.15,1.26,0.41c0.19,0.43-0.15,0.74-0.41,1.04c-0.9,1.02-1.91,1.93-2.67,3.07
		c-0.98,1.46-0.99,1.7,0.13,3.12C358.28,514.6,359.74,516.47,361.34,518.51z"/>
	<path class="st7" d="M332,505.98c-0.1,0.2-0.27,0.56-0.47,0.9c-1.01,1.8-1.88,3.7-3.06,5.38c-1.09,1.54-0.81,3.17-0.86,4.81
		c-0.05,1.38-0.45,1.77-1.65,1.7c-0.86-0.05-1.48-0.49-1.32-1.33c0.58-2.99-1.08-5.16-2.5-7.45c-0.62-1.01-1.02-2.16-1.91-3.01
		c-0.42-0.4-0.69-0.98-0.31-1.51c0.45-0.62,1.14-0.43,1.75-0.23c0.56,0.18,0.9,0.64,1.21,1.11c0.69,1.07,1.51,2.04,2.13,3.16
		c0.69,1.24,1.29,1.2,2.08,0.03c0.76-1.12,1.53-2.23,2.21-3.39c0.52-0.88,1.2-1.23,2.18-1.02
		C331.82,505.21,332.03,505.42,332,505.98z"/>
	<path class="st8" d="M305.99,511.86c0-1.67,0.01-3.34,0-5.02c-0.01-1.06,0.25-1.96,1.44-2.11c0.86-0.11,1.53,0.94,1.53,2.3
		c-0.01,2.39-0.07,4.78-0.06,7.17c0,2.43,0.18,2.57,2.65,2.19c0.95-0.15,1.9-0.22,2.85-0.07c0.75,0.12,1.44,0.43,1.32,1.37
		c-0.11,0.89-0.78,1.11-1.57,1.11c-2.23-0.01-4.46-0.01-6.69-0.03c-1.09-0.01-1.57-0.58-1.55-1.66c0.03-1.75,0.01-3.5,0.01-5.25
		C305.94,511.86,305.97,511.86,305.99,511.86z"/>
</g>
</svg>
